<?xml version="1.0" encoding="utf-8"?>
<!-- Generator: Adobe Illustrator 24.1.2, SVG Export Plug-In . SVG Version: 6.00 Build 0)  -->
<svg version="1.1" id="레이어_1" focusable="false"
	 xmlns="http://www.w3.org/2000/svg" xmlns:xlink="http://www.w3.org/1999/xlink" x="0px" y="0px" viewBox="0 0 496 512"
	 style="enable-background:new 0 0 496 512;" xml:space="preserve">
<style type="text/css">
	.st0{fill:#FFFFFF;}
</style>
<path class="st0" d="M248,8C111,8,0,119,0,256s111,248,248,248s248-111,248-248S385,8,248,8z M248,456c-110.3,0-200-89.7-200-200
	S137.7,56,248,56s200,89.7,200,200S358.3,456,248,456z M353.6,304.6c-25.9,8.3-64.4,13.1-105.6,13.1s-79.6-4.8-105.6-13.1
	c-9.9-3.1-19.4,5.4-17.7,15.3c7.9,47.1,71.3,80,123.3,80s115.3-32.9,123.3-80C372.9,310.1,363.6,301.5,353.6,304.6L353.6,304.6z
	 M168,240c17.7,0,32-14.3,32-32s-14.3-32-32-32s-32,14.3-32,32S150.3,240,168,240z M328,240c17.7,0,32-14.3,32-32s-14.3-32-32-32
	s-32,14.3-32,32S310.3,240,328,240z"/>
</svg>
