<?xml version="1.0" encoding="utf-8"?>
<!-- Generator: Adobe Illustrator 24.1.2, SVG Export Plug-In . SVG Version: 6.00 Build 0)  -->
<svg version="1.1" id="레이어_1" focusable="false"
	 xmlns="http://www.w3.org/2000/svg" xmlns:xlink="http://www.w3.org/1999/xlink" x="0px" y="0px" viewBox="0 0 512 512"
	 style="enable-background:new 0 0 512 512;" xml:space="preserve">
<style type="text/css">
	.st0{fill:#FFFFFF;}
</style>
<path class="st0" d="M117.1,384.1c-25.8,3.7-84,13.7-100.9,30.6c-21.9,21.9-21.5,57.9,0.9,80.3c22.4,22.4,58.3,22.8,80.3,0.9
	C114.3,479,124.3,420.8,128,395C128.8,388.6,123.4,383.2,117.1,384.1z M75.9,342.4C40.3,268,53,176.1,114.6,114.6
	C152.4,76.8,202.6,56,256,56c36.2,0,70.8,9.8,101.2,27.7c3.8-20.3,8-36.1,12-48.3C333.8,17.2,294.9,8,256,8
	C192.5,8,129.1,32.2,80.6,80.6c-74.1,74.1-91.3,183.4-52,274C40.8,350.5,56.3,346.3,75.9,342.4z M428.2,154.8
	c45,76.6,34.9,176.9-30.8,242.6c-37.8,37.8-88,58.6-141.4,58.6c-30.5,0-59.8-7-86.4-19.8c-3.9,19.5-8,35-12.2,47.2
	c31.4,13.6,65,20.6,98.7,20.6c63.5,0,126.9-24.2,175.4-72.6c78.1-78.1,93.1-195.4,45.2-288.6C464.4,146.8,448.5,150.9,428.2,154.8
	L428.2,154.8z M394.9,127.9c25.8-3.7,84-13.7,100.9-30.6c21.9-21.9,21.5-57.9-0.9-80.3s-58.3-22.8-80.3-0.9
	C397.7,33,387.7,91.2,384,117C383.2,123.4,388.6,128.8,394.9,127.9L394.9,127.9z M207.9,236.2c-3-3-7.2-4.2-11.4-3.2L106,255.7
	c-5.7,1.4-9.5,6.7-9.1,12.6c0.5,5.8,5.1,10.5,10.9,11l52.3,4.8l4.8,52.3c0.5,5.8,5.2,10.4,11,10.9h0.9c5.5,0,10.3-3.7,11.7-9.1
	l22.6-90.5C212.1,243.5,210.9,239.2,207.9,236.2L207.9,236.2z M247.6,211.1l90.5-22.6c5.7-1.4,9.5-6.7,9.1-12.6
	c-0.5-5.8-5.1-10.5-10.9-11l-52.3-4.8l-4.8-52.3c-0.5-5.8-5.2-10.4-11-10.9c-5.6-0.1-11.2,3.4-12.6,9.1L233,196.5
	c-1,4.1,0.2,8.4,3.2,11.4C241.2,212.9,247.5,211.1,247.6,211.1L247.6,211.1z M299.6,299.6c-29.1,29.1-59.7,52.9-83.9,65.4
	c-9.2,4.8-10,17.5-1.7,23.4c38.9,27.7,107,6.2,143.7-30.6S416,253,388.3,214.1c-5.8-8.2-18.5-7.6-23.4,1.7
	C352.6,240,328.7,270.5,299.6,299.6L299.6,299.6z"/>
</svg>
