<?xml version="1.0" encoding="utf-8"?>
<!-- Generator: Adobe Illustrator 24.1.2, SVG Export Plug-In . SVG Version: 6.00 Build 0)  -->
<svg version="1.1" id="레이어_1" focusable="false"
	 xmlns="http://www.w3.org/2000/svg" xmlns:xlink="http://www.w3.org/1999/xlink" x="0px" y="0px" viewBox="0 0 496 512"
	 style="enable-background:new 0 0 496 512;" xml:space="preserve">
<style type="text/css">
	.st0{fill:#FFFFFF;}
</style>
<path class="st0" d="M248,8C111,8,0,119,0,256s111,248,248,248s248-111,248-248S385,8,248,8z M248,456c-110.3,0-200-89.7-200-200
	S137.7,56,248,56s200,89.7,200,200S358.3,456,248,456z M353.6,304.6c-25.9,8.3-64.4,13.1-105.6,13.1s-79.6-4.8-105.6-13.1
	c-9.9-3.1-19.4,5.4-17.7,15.3c7.9,47.1,71.3,80,123.3,80s115.3-32.9,123.3-80C372.9,310.1,363.6,301.5,353.6,304.6L353.6,304.6z
	 M118.9,263.8c3.6,4.2,9.9,5.7,15.3,2.5l80-48c3.6-2.2,5.8-6.1,5.8-10.3s-2.2-8.1-5.8-10.3l-80-48c-5.1-3-11.4-1.9-15.3,2.5
	c-3.8,4.5-3.8,11-0.1,15.5l33.6,40.3l-33.6,40.3C115,252.8,115.1,259.4,118.9,263.8z M361.8,266.3c5.4,3.2,11.7,1.7,15.3-2.5
	c3.8-4.5,3.8-11,0.1-15.5L343.6,208l33.6-40.3c3.8-4.5,3.7-11-0.1-15.5c-3.8-4.4-10.2-5.4-15.3-2.5l-80,48
	c-3.6,2.2-5.8,6.1-5.8,10.3s2.2,8.1,5.8,10.3L361.8,266.3L361.8,266.3z"/>
</svg>
